# xmcd CD database file
#
# Track frame offsets:
#	182
#	22727
#	40687
#	61320
#	70152
#	91652
#	111152
#	130942
#	147047
#	165685
#	184142
#
# Disc length: 2709 seconds
#
# Revision: 45
# Processed by: cddbd v1.5.2PL0 Copyright (c) Steve Scherf et al.
# Submitted via: CDex 2.23
#
DISCID=880a930b
DTITLE=TEXAS - SOUTHSIDE
DYEAR=1989
DGENRE=Pop Rock
TTITLE0=I Don't Want A Lover
TTITLE1=Tell Me Why
TTITLE2=Everyday Now
TTITLE3=Southside
TTITLE4=Prayer For You
TTITLE5=Faith
TTITLE6=Thrill Has Gone
TTITLE7=Fight The Feeling
TTITLE8=Fool For Love
TTITLE9=One Choice
TTITLE10=Future Is Promises
EXTD=YEAR: 1989
EXTT0=
EXTT1=
EXTT2=
EXTT3=
EXTT4=
EXTT5=
EXTT6=
EXTT7=
EXTT8=
EXTT9=
EXTT10=
PLAYORDER=
